# xmcd
#
# Track frame offsets:
#	150
#	12600
#	24345
#	39125
#	50202
#	62397
#	78030
#	91665
#	104465
#	114807
#
# Disc length: 1679 seconds
#
# Revision: 0
# Processed by: cddbd v1.4PL0 Copyright (c) Steve Scherf et al.
# Submitted via: audiograbber 1.82.00
#
DISCID=67068d0a
DTITLE=Elayne Otterson - Deep In The Heart Of Country
DYEAR=1900
DGENRE=Country
TTITLE0=Mansion On The Hill
TTITLE1=Money Marbles and Chalk
TTITLE2=Daughters Of The Sixties
TTITLE3=This Prison I'm In
TTITLE4=Have I Told You Lately
TTITLE5=MailBox In Heaven
TTITLE6=Blues At Midnight
TTITLE7=If Teardrops Were Pennies
TTITLE8=A Plan For Broken Hearts
TTITLE9=Once A Day
EXTD=
EXTT0=
EXTT1=
EXTT2=
EXTT3=
EXTT4=
EXTT5=
EXTT6=
EXTT7=
EXTT8=
EXTT9=
PLAYORDER=
